<svg xmlns="http://www.w3.org/2000/svg" viewBox="0 0 480 300" fill="none">
  <defs><linearGradient id="metal" x1="130" y1="80" x2="330" y2="230" gradientUnits="userSpaceOnUse"><stop stop-color="#fff"/><stop offset="1" stop-color="#cdcec4"/></linearGradient></defs>
  <path stroke="#d5d5cd" stroke-dasharray="3 6" d="M0 150h480M240 0v300"/><ellipse cx="242" cy="252" rx="114" ry="9" fill="#deded6"/>
  <path d="m134 94 121-37 85 46-121 40-85-49Z" fill="#fff" stroke="#35352e"/><path d="m134 94 85 49v81l-85-49V94Z" fill="url(#metal)" stroke="#35352e"/><path d="m219 143 121-40v81l-121 40v-81Z" fill="#e2e3da" stroke="#35352e"/>
  <path d="m154 121 42 24v25l-42-24v-25Z" fill="#ed9655" stroke="#ab6330"/><path stroke="#57574f" d="m242 157 74-24m-74 39 74-24m-74 39 45-15"/>
  <path d="m265 64 24-43 16 9-24 43-16-9Z" fill="url(#metal)" stroke="#35352e"/><path d="m272 33 16-28 27 15-16 28-27-15Z" fill="#ed9655" stroke="#ab6330"/>
  <circle cx="159" cy="164" r="3" fill="#53534b"/><circle cx="201" cy="199" r="3" fill="#53534b"/><path stroke="#aaa99d" d="M93 81h22m-11-11v22m255 118h22m-11-11v22"/>
</svg>
